<?xml version="1.0" encoding="utf-8"?>
<!-- Generator: Adobe Illustrator 16.0.0, SVG Export Plug-In . SVG Version: 6.00 Build 0)  -->
<!DOCTYPE svg PUBLIC "-//W3C//DTD SVG 1.1//EN" "http://www.w3.org/Graphics/SVG/1.1/DTD/svg11.dtd">
<svg version="1.1" id="Calque_1" xmlns="http://www.w3.org/2000/svg" xmlns:xlink="http://www.w3.org/1999/xlink" x="0px" y="0px"
	 width="161px" height="69.675px" viewBox="-11.179 -4.837 161 69.675" enable-background="new -11.179 -4.837 161 69.675"
	 xml:space="preserve">
<g>
	<path fill="#FFFFFF" d="M4.021,31.852L2.07,43.223h6.525c1.257,0,2.445-0.111,3.566-0.337c1.121-0.225,2.12-0.582,2.995-1.077
		c0.874-0.492,1.569-1.167,2.086-2.018c0.514-0.853,0.774-1.884,0.774-3.096c0-1.524-0.583-2.714-1.75-3.565
		c-1.166-0.853-2.825-1.278-4.979-1.278H4.021L4.021,31.852z M5.501,23.778h6.862c0.806,0,1.647-0.086,2.522-0.266
		c0.875-0.179,1.673-0.489,2.389-0.935c0.717-0.448,1.312-1.048,1.781-1.806c0.472-0.756,0.706-1.692,0.706-2.807
		c0-1.56-0.605-2.674-1.815-3.343c-1.21-0.669-2.736-1.003-4.575-1.003H7.249l-0.851,4.935l-10.63,0.005l2.465-13.956h18.635l0,0
		c1.658,0,3.32,0.179,4.979,0.538c1.66,0.359,3.152,0.953,4.475,1.782c1.322,0.832,2.398,1.908,3.228,3.23
		c0.829,1.322,1.245,2.95,1.245,4.876c0,3.23-0.942,5.877-2.825,7.941c-1.884,2.063-4.329,3.476-7.333,4.237v0.136
		c2.422,0.403,4.451,1.491,6.089,3.263c1.637,1.772,2.455,4.071,2.455,6.896c0,2.422-0.504,4.552-1.513,6.392
		c-1.009,1.84-2.411,3.376-4.205,4.608c-1.795,1.235-3.947,2.165-6.459,2.792c-2.513,0.629-5.249,0.942-8.209,0.942h-18.973
		l5.025-28.459H5.501V23.778z"/>
	<path fill="#FFFFFF" d="M33.275,52.237l5.854-33.504h10.83l-5.987,33.504H33.275z M52.249,7.496c0,0.898-0.158,1.728-0.469,2.491
		c-0.315,0.762-0.753,1.445-1.312,2.052c-0.562,0.605-1.222,1.076-1.986,1.413c-0.763,0.336-1.591,0.505-2.49,0.505
		c-1.704,0-3.105-0.505-4.203-1.514c-1.101-1.01-1.65-2.298-1.65-3.87c0-1.837,0.617-3.375,1.852-4.608
		c1.233-1.234,2.746-1.85,4.542-1.85c1.658,0,3.027,0.516,4.104,1.547C51.711,4.693,52.249,5.972,52.249,7.496z"/>
	<path fill="#FFFFFF" d="M52.99,26.807l1.48-8.074h6.066l1.545-8.881h10.496l-1.546,8.881h7.129l-1.479,8.074h-6.93L67.33,39.976
		c-0.045,0.315-0.078,0.643-0.102,0.979c-0.021,0.337-0.032,0.619-0.032,0.844c0,1.126,0.313,1.893,0.942,2.295
		c0.628,0.408,1.482,0.608,2.557,0.608c0.54,0,1.065-0.044,1.58-0.135c0.516-0.089,0.977-0.179,1.382-0.268l-1.01,7.737
		c-0.629,0.269-1.515,0.504-2.657,0.707c-1.144,0.201-2.233,0.302-3.264,0.302c-3.229,0-6.526-0.652-8.387-1.957
		c-1.862-1.302-2.793-3.372-2.793-6.204c0-0.539,0.035-1.158,0.102-1.855c0.068-0.695,0.17-1.358,0.304-1.989l2.556-14.233H52.99
		L52.99,26.807z"/>
	<path fill="#FFFFFF" d="M114.419-4.404C95.416-4.404,80.011,11,80.011,30c0,19.002,15.404,34.404,34.407,34.404
		c18.999,0,34.402-15.402,34.402-34.404C148.821,11,133.418-4.404,114.419-4.404z M104.383,52.237H93.684l5.854-33.504h10.832
		L104.383,52.237z M112.187,9.987c-0.314,0.762-0.753,1.445-1.312,2.052c-0.561,0.605-1.224,1.076-1.984,1.413
		c-0.764,0.337-1.593,0.505-2.49,0.505c-1.706,0-3.106-0.505-4.205-1.514c-1.1-1.01-1.648-2.298-1.648-3.87
		c0-1.837,0.616-3.375,1.851-4.608c1.233-1.234,2.747-1.85,4.544-1.85c1.657,0,3.026,0.516,4.103,1.547
		c1.074,1.032,1.613,2.31,1.613,3.834C112.658,8.395,112.5,9.224,112.187,9.987z M136.341,26.807h-6.93l-2.421,13.169
		c-0.047,0.315-0.079,0.643-0.103,0.979s-0.034,0.619-0.034,0.844c0,1.126,0.314,1.893,0.943,2.295
		c0.628,0.408,1.481,0.608,2.557,0.608c0.539,0,1.064-0.044,1.581-0.135c0.515-0.089,0.975-0.179,1.38-0.268l-1.01,7.737
		c-0.629,0.269-1.515,0.504-2.657,0.707c-1.144,0.201-2.232,0.302-3.262,0.302c-3.23,0-5.775-0.652-7.637-1.957
		c-1.863-1.302-2.794-3.372-2.794-6.204c0-0.539,0.034-1.158,0.103-1.855c0.069-0.696,0.169-1.358,0.303-1.989l2.558-14.233h-5.521
		l1.482-8.074h5.313l1.548-8.881h10.497l-1.548,8.881h7.132L136.341,26.807z"/>
</g>
<circle display="none" fill="#FFFFFF" cx="565.333" cy="242.976" r="91.666"/>
<g display="none">
	<path display="inline" fill="#FFFFFF" d="M305.438,175.311c4.42,0,8.843,0.479,13.266,1.434c4.42,0.958,8.396,2.541,11.921,4.75
		c3.523,2.213,6.393,5.081,8.604,8.604c2.21,3.526,3.315,7.859,3.315,12.996c0,8.604-2.51,15.657-7.528,21.153
		c-5.02,5.498-11.533,9.263-19.539,11.293v0.358c6.453,1.076,11.858,3.975,16.224,8.694c4.36,4.722,6.543,10.845,6.543,18.374
		c0,6.454-1.344,12.131-4.033,17.03c-2.688,4.901-6.425,8.994-11.203,12.278c-4.78,3.289-10.518,5.768-17.209,7.439
		c-6.693,1.675-13.981,2.51-21.869,2.51h-50.552l22.408-126.916L305.438,175.311L305.438,175.311z M271.199,247.91L266,278.205
		h17.389c3.345,0,6.512-0.297,9.501-0.896c2.985-0.597,5.646-1.552,7.977-2.867c2.33-1.313,4.182-3.106,5.557-5.379
		c1.372-2.269,2.063-5.019,2.063-8.246c0-4.062-1.556-7.229-4.661-9.5c-3.109-2.27-7.529-3.406-13.265-3.406H271.199L271.199,247.91
		z M279.803,199.331l-4.661,27.067h18.283c2.151,0,4.394-0.234,6.724-0.711c2.33-0.476,4.45-1.305,6.363-2.492
		c1.909-1.188,3.495-2.791,4.75-4.81c1.255-2.017,1.882-4.51,1.882-7.479c0-4.157-1.612-7.123-4.84-8.904
		c-3.228-1.78-7.291-2.672-12.188-2.672H279.803z"/>
	<path display="inline" fill="#FFFFFF" d="M349.146,302.225l15.596-89.271h28.859l-15.953,89.271H349.146z M399.696,183.018
		c0,2.393-0.42,4.603-1.254,6.633c-0.839,2.035-2.003,3.854-3.496,5.468c-1.495,1.612-3.258,2.868-5.288,3.765
		c-2.033,0.896-4.243,1.344-6.633,1.344c-4.543,0-8.276-1.344-11.203-4.033c-2.931-2.688-4.394-6.123-4.394-10.308
		c0-4.897,1.643-8.991,4.931-12.278c3.285-3.287,7.317-4.931,12.101-4.931c4.42,0,8.066,1.375,10.936,4.123
		C398.263,175.55,399.696,178.957,399.696,183.018z"/>
	<path display="inline" fill="#FFFFFF" d="M401.668,234.465l3.943-21.511h16.161l4.121-23.662h27.967l-4.123,23.662h19.001
		l-3.943,21.511h-18.464l-6.453,35.087c-0.12,0.841-0.21,1.712-0.269,2.61c-0.063,0.898-0.092,1.65-0.092,2.25
		c0,3,0.835,5.039,2.512,6.117c1.672,1.08,3.941,1.619,6.812,1.619c1.437,0,2.837-0.119,4.213-0.358
		c1.372-0.238,2.601-0.476,3.677-0.718l-2.689,20.615c-1.675,0.718-4.033,1.345-7.08,1.883c-3.048,0.538-5.946,0.807-8.694,0.807
		c-8.604,0-17.389-1.739-22.346-5.212c-4.961-3.474-7.438-8.985-7.438-16.534c0-1.438,0.09-3.084,0.269-4.941
		c0.181-1.856,0.448-3.625,0.808-5.302l6.813-37.921h-14.701v-0.002H401.668z"/>
	<path display="inline" d="M510.096,302.225l15.598-89.271h28.858l-15.954,89.271H510.096z M560.645,183.018
		c0,2.393-0.42,4.603-1.254,6.633c-0.838,2.035-2.003,3.854-3.496,5.468c-1.493,1.612-3.258,2.868-5.286,3.765
		c-2.033,0.896-4.243,1.344-6.635,1.344c-4.543,0-8.274-1.344-11.201-4.033c-2.932-2.688-4.395-6.123-4.395-10.308
		c0-4.897,1.643-8.991,4.93-12.278c3.286-3.287,7.319-4.931,12.103-4.931c4.42,0,8.064,1.375,10.935,4.123
		C559.214,175.55,560.645,178.957,560.645,183.018z"/>
	<path display="inline" d="M562.618,234.465l3.941-21.511h14.161l4.123-23.662h27.965l-4.122,23.662h19l-3.941,21.511h-18.464
		l-6.453,35.087c-0.12,0.841-0.21,1.712-0.271,2.61c-0.062,0.898-0.09,1.65-0.09,2.25c0,3,0.835,5.039,2.51,6.117
		c1.674,1.08,3.943,1.619,6.813,1.619c1.435,0,2.837-0.119,4.213-0.358c1.372-0.238,2.6-0.476,3.675-0.718l-2.688,20.615
		c-1.675,0.718-4.033,1.345-7.08,1.883c-3.048,0.538-5.946,0.807-8.694,0.807c-8.604,0-15.389-1.739-20.346-5.212
		c-4.961-3.474-7.439-8.985-7.439-16.534c0-1.438,0.09-3.084,0.271-4.941c0.18-1.856,0.447-3.625,0.807-5.302l6.813-37.921h-14.701
		v-0.002H562.618z"/>
</g>
</svg>
